<svg xmlns="http://www.w3.org/2000/svg"
shape-rendering="geometricPrecision"
width="4000" height="4000" viewBox="0 0 1024 1024">
  <metadata>null</metadata>

<path d="
M 268.711 397.303
C 269.249 396.936 269.841 397.54 270.383 397.698
C 270.793 397.819 270.84 397.357 271.167 397.518
C 272.542 398.193 271.704 401.263 271.502 402.371
C 269.995 410.643 268.887 419.069 268.785 427.497
C 268.537 448.088 272.761 468.558 281.05 487.415
C 286.612 500.071 293.888 512.488 303.572 522.451
C 307.094 526.075 310.583 529.923 314.73 532.84
C 315.86 533.635 317.241 534.767 318.66 534.887
C 319.273 534.939 320.438 534.839 319.984 534.011
C 325.152 540.355 330.129 546.357 336.572 551.511
C 355.011 566.263 378.669 572.428 402.028 571.076
C 408.422 570.705 415.787 570.183 421.867 568.106
C 418.342 570.693 412.822 571.866 408.635 572.908
C 401.824 574.604 395.034 576.379 388.163 577.823
C 343.186 587.269 292.24 575.189 263.47 537.369
C 255.09 526.352 249.307 513.722 245.467 500.45
C 244.603 497.463 243.962 494.35 243.512 491.276
C 243.265 489.59 243.472 487.548 242.84 485.97
C 242.113 482.526 242.271 479.013 242.532 475.478
C 242.876 470.809 243.038 466.191 243.66 461.542
C 245.972 444.259 251.45 428.227 259.402 412.761
C 262.087 407.538 265.088 401.941 268.711 397.303 Z"
opacity="1" fill="rgb(59,64,70)" fill-rule="evenodd" />
<path d="
M 242.84 485.97
C 243.472 487.548 243.265 489.59 243.512 491.276
C 243.962 494.35 244.603 497.463 245.467 500.45
C 249.307 513.722 255.09 526.352 263.47 537.369
C 292.24 575.189 343.186 587.269 388.163 577.823
C 395.034 576.379 401.824 574.604 408.635 572.908
C 412.822 571.866 418.342 570.693 421.867 568.106
C 434.99 563.584 447.572 556.671 459.458 549.592
C 484.419 534.723 506.717 516.674 528.564 497.644
C 553.78 475.677 577.801 452.368 600.538 427.823
C 618.718 408.198 636.937 388.552 653.459 367.482
C 666.648 350.663 679.919 333.953 692.776 316.869
C 696.996 311.261 701.066 305.545 705.179 299.859
C 707.022 297.312 709.513 294.759 710.966 291.99
C 700.821 289.81 690.496 288.401 680.387 286.053
C 676.592 285.171 672.067 284.965 668.495 283.422
C 670.154 282.199 672.3 281.535 674.13 280.591
C 677.466 278.871 680.861 277.26 684.216 275.575
C 694.372 270.476 704.588 265.431 714.628 260.106
C 730.133 251.883 745.775 243.905 761.243 235.616
C 767.047 232.506 772.876 229.44 778.733 226.429
C 782.097 224.699 785.435 222.536 788.996 221.25
C 789.509 227.458 788.297 234.248 787.942 240.49
C 787.27 252.327 786.554 264.161 785.949 275.994
C 784.952 295.496 783.969 314.998 782.927 334.494
C 782.447 343.477 782.853 352.83 781.679 361.731
C 779.277 359.127 777.296 356.094 775.223 353.228
C 771.065 347.479 766.942 341.675 762.897 335.845
C 761.43 333.731 759.948 331.654 758.387 329.603
C 758.062 329.176 757.279 327.767 756.786 327.998
C 750.911 338.307 743.298 347.819 736.457 357.496
C 721.015 379.339 704.152 400.098 687.464 420.979
C 670.297 442.458 652.113 463.024 633.636 483.372
C 602.778 517.354 569.823 549.253 534.01 577.978
C 513.85 594.148 491.483 608.301 468.07 619.241
C 453.108 626.233 437.687 632.006 421.39 634.982
C 377.973 642.909 332.554 633.45 297.88 605.441
C 285.882 595.749 275.815 584.024 267.138 571.333
C 254.239 552.464 246.262 529.665 243.682 507.019
C 243.08 501.733 242.653 496.449 242.361 491.137
C 242.294 489.923 241.966 488.393 242.351 487.21
C 242.489 486.788 242.421 486.118 242.84 485.97 Z"
opacity="1" fill="rgb(251,133,17)" fill-rule="evenodd" />
<path d="
M 319.984 534.011
C 320.438 534.839 319.273 534.939 318.66 534.887
C 317.241 534.767 315.86 533.635 314.73 532.84
C 310.583 529.923 307.094 526.075 303.572 522.451
C 293.888 512.488 286.612 500.071 281.05 487.415
C 272.761 468.558 268.537 448.088 268.785 427.497
C 268.887 419.069 269.995 410.643 271.502 402.371
C 271.704 401.263 272.542 398.193 271.167 397.518
C 270.84 397.357 270.793 397.819 270.383 397.698
C 269.841 397.54 269.249 396.936 268.711 397.303
C 291.367 361.982 329.099 339.065 370.104 332.271
C 391.045 328.802 412.866 330.146 434.011 330.131
C 446.675 330.121 459.34 330.057 472.004 330.045
C 475.836 330.041 479.668 330.073 483.5 330.07
C 485.708 330.067 488.175 329.749 490.333 330.233
C 490.235 331.767 488.687 333.738 487.978 335.089
C 486.079 338.712 484.205 342.351 482.273 345.958
C 477.164 355.497 471.902 364.953 466.812 374.502
C 464.597 378.656 462.705 383.941 459.751 387.597
C 453.517 388.282 446.785 387.551 440.504 387.55
C 429.67 387.547 418.836 387.534 408.003 387.642
C 392.987 387.792 378.385 388.417 364.008 393.218
C 358.857 394.939 353.892 397.326 349.169 399.989
C 316.374 418.48 300.145 456.457 304.4 493.181
C 306.131 508.119 312.242 521.358 319.984 534.011 Z"
opacity="1" fill="rgb(68,74,81)" fill-rule="evenodd" />
<path d="
M 503.868 470.962
C 503.054 470.992 501.37 472.743 500.67 473.284
C 497.642 475.623 494.852 478.273 491.925 480.734
C 482.069 489.02 471.699 497.136 460.891 504.15
C 457.927 506.074 454.992 508.033 452.009 509.929
C 450.17 511.097 448.819 512.042 446.613 511.427
C 446.769 509.597 444.399 510.246 443.002 510.233
C 438.668 510.191 434.333 510.213 429.999 510.211
C 417.665 510.205 405.331 510.196 392.997 510.211
C 389.163 510.215 385.327 510.193 381.493 510.212
C 379.722 510.221 377.473 510.641 375.761 510.234
C 382.633 498.209 389.751 486.303 396.509 474.205
C 398.957 469.822 401.509 465.494 404.003 461.137
C 405.282 458.902 406.422 456.389 408.003 454.359
C 410.783 453.612 414.619 454.244 417.507 454.244
C 424.339 454.244 431.172 454.243 438.005 454.257
C 459.877 454.3 481.751 454.265 503.622 454.286
C 503.95 455.957 503.684 457.803 503.708 459.503
C 503.76 463.322 503.691 467.146 503.868 470.962 Z"
opacity="1" fill="rgb(71,77,85)" fill-rule="evenodd" />
<path d="
M 446.613 511.427
C 448.819 512.042 450.17 511.097 452.009 509.929
C 454.992 508.033 457.927 506.074 460.891 504.15
C 471.699 497.136 482.069 489.02 491.925 480.734
C 494.852 478.273 497.642 475.623 500.67 473.284
C 501.37 472.743 503.054 470.992 503.868 470.962
C 503.89 477.14 503.931 483.33 503.936 489.514
C 503.938 492.769 504.213 496.148 503.85 499.385
C 502.492 501.292 499.807 502.721 497.965 504.166
C 494.429 506.938 490.96 509.769 487.35 512.452
C 478.276 519.197 468.958 525.609 459.316 531.514
C 455.284 533.984 451.242 537.104 446.886 538.962
C 446.006 536.95 446.691 533.227 446.665 531.01
C 446.589 524.497 446.412 517.937 446.613 511.427 Z"
opacity="1" fill="rgb(58,64,71)" fill-rule="evenodd" />
<path d="
M 582.943 339.503
C 582.979 353.645 582.855 367.786 582.887 381.924
C 582.895 385.386 582.788 388.857 582.911 392.316
C 582.956 393.591 583.442 395.556 582.542 396.59
C 579.519 400.4 575.868 403.846 572.545 407.414
C 563.253 417.39 553.447 426.918 543.552 436.29
C 539.796 439.846 535.989 443.374 532.118 446.806
C 530.121 448.577 527.522 450.028 525.806 452.067
C 525.035 452.983 524.903 454.058 524.325 455.007
C 523.64 434.726 524.157 414.31 524.147 394.009
C 524.137 372.728 523.639 351.377 524.053 330.108
C 525.099 329.308 527.217 329.702 528.504 329.691
C 532.172 329.661 535.84 329.643 539.508 329.636
C 553.904 329.608 568.343 329.945 582.733 329.632
C 583.182 330.306 582.937 331.677 582.941 332.491
C 582.955 334.828 582.942 337.166 582.943 339.503 Z"
opacity="1" fill="rgb(251,144,21)" fill-rule="evenodd" />
<path d="
M 524.325 455.007
C 524.903 454.058 525.035 452.983 525.806 452.067
C 527.522 450.028 530.121 448.577 532.118 446.806
C 535.989 443.374 539.796 439.846 543.552 436.29
C 553.447 426.918 563.253 417.39 572.545 407.414
C 575.868 403.846 579.519 400.4 582.542 396.59
C 583.442 395.556 582.956 393.591 582.911 392.316
C 582.788 388.857 582.895 385.386 582.887 381.924
C 582.855 367.786 582.979 353.645 582.943 339.503
C 583.651 342.527 583.05 346.391 583.067 349.503
C 583.106 356.67 583.116 363.837 583.128 371.003
C 583.149 383.175 583.163 395.341 583.157 407.509
C 583.155 411.34 583.147 415.171 583.167 419.002
C 583.178 421.091 583.438 423.401 583.059 425.456
C 582.201 427.298 579.673 428.986 578.224 430.414
C 574.937 433.654 571.71 436.958 568.477 440.252
C 558.675 450.238 548.597 459.986 538.283 469.442
C 535.051 472.405 531.91 475.497 528.53 478.292
C 527.306 479.304 525.915 480.876 524.458 481.49
C 524.293 472.666 524.277 463.834 524.325 455.007 Z"
opacity="1" fill="rgb(250,114,17)" fill-rule="evenodd" />
<path d="
M 583.174 585.997
C 580.838 586.596 578.463 588.954 576.611 590.482
C 572.808 593.621 568.978 596.733 565.121 599.802
C 556.522 606.645 547.72 613.256 538.954 619.885
C 535.816 622.258 532.68 624.619 529.452 626.871
C 528.449 627.571 527.479 628.721 526.339 629.185
C 525.616 629.48 524.747 629.156 524.085 629.486
C 524.329 620.878 523.298 611.905 524.185 603.357
C 533.649 596.062 543.407 589.203 552.709 581.67
C 563.04 573.304 572.632 564.108 582.833 555.612
C 583.163 556.467 582.937 557.139 582.943 558.018
C 582.957 560.301 582.94 562.587 582.949 564.872
C 582.978 571.903 582.998 578.964 583.174 585.997 Z"
opacity="1" fill="rgb(54,59,68)" fill-rule="evenodd" />
<path d="
M 524.085 629.486
C 524.747 629.156 525.616 629.48 526.339 629.185
C 527.479 628.721 528.449 627.571 529.452 626.871
C 532.68 624.619 535.816 622.258 538.954 619.885
C 547.72 613.256 556.522 606.645 565.121 599.802
C 568.978 596.733 572.808 593.621 576.611 590.482
C 578.463 588.954 580.838 586.596 583.174 585.997
C 583.883 598.558 583.195 611.408 583.189 624
C 583.187 628.307 582.713 632.914 583.15 637.186
C 578.224 636.686 572.956 637.198 567.998 637.199
C 557.664 637.201 547.331 637.218 536.997 637.208
C 532.808 637.203 528.312 637.678 524.159 637.198
C 524.091 634.624 524.142 632.052 524.085 629.486 Z"
opacity="1" fill="rgb(65,71,78)" fill-rule="evenodd" />
<path d="
M 671.918 498.043
C 671.343 497.7 670.785 498.209 670.347 498.546
C 666.973 501.361 664.103 504.938 661.065 508.111
C 654.197 515.285 647.423 522.555 640.633 529.801
C 638.424 532.159 635.895 534.235 633.833 536.729
C 632.85 537.918 631.619 538.925 632.449 540.561
C 627.036 534.885 623.182 527.559 618.231 521.474
C 618.669 520.327 619.948 519.378 620.784 518.492
C 622.816 516.336 624.905 514.232 626.957 512.095
C 634.02 504.742 641.065 497.387 648.029 489.941
C 650.231 487.587 652.395 485.199 654.531 482.785
C 655.511 481.678 656.649 480.028 658.032 479.423
C 663.008 485.259 667.462 491.793 671.918 498.043 Z"
opacity="1" fill="rgb(63,69,77)" fill-rule="evenodd" />
<path d="
M 671.918 498.043
C 678.866 508.223 686.646 517.925 693.962 527.846
C 712.779 553.362 731.734 578.778 750.451 604.367
C 755.811 611.696 761.199 619.027 766.455 626.432
C 768.245 628.954 770.131 631.415 771.877 633.967
C 772.372 634.689 772.901 635.406 773.444 636.091
C 773.567 636.246 774.425 636.999 774.292 637.098
C 757.533 637.179 740.762 637.165 723.999 637.186
C 719.332 637.191 714.665 637.187 709.997 637.202
C 708.276 637.207 705.47 637.749 703.905 637.025
C 700.437 633.02 697.47 628.411 694.382 624.108
C 689.011 616.624 683.518 609.194 677.965 601.845
C 669.942 591.227 662.122 580.44 654.227 569.726
C 647.036 559.967 639.491 550.421 632.449 540.561
C 631.619 538.925 632.85 537.918 633.833 536.729
C 635.895 534.235 638.424 532.159 640.633 529.801
C 647.423 522.555 654.197 515.285 661.065 508.111
C 664.103 504.938 666.973 501.361 670.347 498.546
C 670.785 498.209 671.343 497.7 671.918 498.043 Z"
opacity="1" fill="rgb(74,80,86)" fill-rule="evenodd" />

</svg>